<svg id="Capa_1" enable-background="new 0 0 512 512" height="512" viewBox="0 0 512 512" width="512" xmlns="http://www.w3.org/2000/svg"><g><path d="m256 300.412c-31.261 0-60.086-10.416-83.208-27.958v77.29c0 45.954 37.253 83.208 83.208 83.208 45.954 0 83.208-37.253 83.208-83.208v-77.29c-23.122 17.543-51.947 27.958-83.208 27.958z" fill="#b98eff"/><path d="m195.405 38.818c-9.882-18.626-29.464-31.318-52.018-31.318-32.506 0-58.857 26.351-58.857 58.857 0 25.813 16.625 47.73 39.745 55.667 11.248-36.547 37.287-66.608 71.13-83.206z" fill="#b98eff"/><path d="m137.191 92.771c8.236-13.981 18.863-26.385 31.329-36.639-4.038-9.915-13.767-16.907-25.133-16.907-14.985 0-27.133 12.148-27.133 27.133 0 12.851 8.939 23.609 20.937 26.413z" fill="#ff9bff"/><path d="m316.595 38.818c9.882-18.626 29.464-31.318 52.018-31.318 32.506 0 58.857 26.351 58.857 58.857 0 25.813-16.625 47.73-39.745 55.667-11.248-36.547-37.287-66.608-71.13-83.206z" fill="#b98eff"/><path d="m374.809 92.771c-8.236-13.981-18.863-26.385-31.329-36.639 4.038-9.915 13.767-16.907 25.133-16.907 14.985 0 27.133 12.148 27.133 27.133 0 12.851-8.939 23.609-20.937 26.413z" fill="#ff9bff"/><g fill="#b98eff"><path d="m172.792 272.455-64.187 36.586c-11.014 6.278-15.477 19.881-10.322 31.463 5.933 13.332 22.078 18.628 34.756 11.402l39.754-22.659v-56.792z"/><path d="m339.208 272.455 64.187 36.586c11.014 6.278 15.477 19.881 10.322 31.463-5.933 13.332-22.078 18.628-34.756 11.402l-39.754-22.659v-56.792z"/><circle cx="256" cy="162.609" r="137.803"/></g><path d="m294.399 350.744c-1.136-18.203-22.116-28.147-38.4-15.49-16.273-12.648-37.262-2.723-38.398 15.49-.439 7.039 2.178 14.51 7.567 21.604 6.034 7.941 15.403 15.347 27.847 22.014 1.869 1.001 4.1 1.003 5.969 0 12.445-6.667 21.813-14.073 27.847-22.014 5.39-7.094 8.006-14.565 7.568-21.604z" fill="#ff9bff"/><path d="m272.547 431.302v29.961h-14.467c-11.94 0-21.619 9.679-21.619 21.619s9.679 21.619 21.619 21.619h36.086c11.94 0 21.619-9.679 21.619-21.619v-75.294c-11.476 11.858-26.433 20.322-43.238 23.714z" fill="#b98eff"/><path d="m241.319 431.635c-16.656-2.967-31.591-10.879-43.237-22.178v51.806h-14.468c-11.939 0-21.619 9.679-21.619 21.619s9.679 21.619 21.619 21.619h36.086c8.349 0 15.588-4.737 19.19-11.666-1.549-2.98-2.429-6.362-2.429-9.952 0-5.178 1.822-9.929 4.858-13.651z" fill="#b98eff"/><g><path d="m132.618 99.272c-14.273-4.667-23.863-17.894-23.863-32.915 0-19.097 15.536-34.633 34.633-34.633 12.646 0 24.285 6.896 30.374 17.996 1.991 3.632.662 8.191-2.97 10.183-3.631 1.993-8.191.662-10.183-2.969-3.454-6.298-10.053-10.21-17.222-10.21-10.825 0-19.633 8.807-19.633 19.633 0 8.515 5.436 16.013 13.525 18.658 3.937 1.287 6.085 5.522 4.798 9.459-1.29 3.947-5.533 6.083-9.459 4.798z" fill="#e207b9"/></g><g><path d="m370.171 94.462c-1.322-3.925.788-8.179 4.713-9.501 7.992-2.692 13.361-10.168 13.361-18.603 0-10.826-8.808-19.633-19.633-19.633-7.235 0-13.864 3.966-17.298 10.351-1.962 3.646-6.511 5.015-10.158 3.052-3.648-1.962-5.015-6.51-3.053-10.158 6.054-11.253 17.744-18.245 30.509-18.245 19.097 0 34.633 15.536 34.633 34.633 0 14.88-9.473 28.069-23.572 32.818-3.926 1.322-8.18-.79-9.502-4.714z" fill="#e207b9"/></g><g fill="#6d00ca"><circle cx="311.096" cy="165.046" r="11.69"/><circle cx="200.904" cy="165.046" r="11.69"/></g><path d="m301.884 350.279c0-.001 0-.001 0-.002-.697-11.174-7.41-20.95-17.52-25.511-9.129-4.118-19.4-3.483-28.365 1.531-8.964-5.013-19.239-5.646-28.368-1.527-10.106 4.561-16.818 14.333-17.515 25.504v.003c-.553 8.859 2.587 18.06 9.08 26.608.002.003.005.006.007.009 6.687 8.799 16.868 16.899 30.263 24.076.003.001.005.003.008.005 3.924 2.101 8.705 2.25 12.896.07.051-.026.104-.044.155-.071 0 0 .001-.001.002-.001s.001-.001.002-.001c.001-.001.002-.001.003-.002 13.396-7.176 23.58-15.279 30.27-24.084.002-.002.003-.005.005-.007 6.489-8.544 9.628-17.741 9.077-26.6zm-45.884 37.167c-11.202-6.071-19.567-12.672-24.855-19.629-.001-.002-.002-.004-.004-.005-4.287-5.643-6.38-11.383-6.055-16.6.355-5.693 3.613-10.467 8.715-12.769 5.577-2.518 12.155-1.494 17.596 2.734 2.69 2.092 6.513 2.095 9.205 0 5.442-4.229 12.019-5.252 17.593-2.737 5.104 2.303 8.363 7.078 8.719 12.772.324 5.219-1.77 10.958-6.052 16.597-.001.001-.001.002-.002.003-5.292 6.96-13.658 13.564-24.86 19.634z" fill="#e207b9"/><path d="m272.547 431.302v25.59c15.786-2.428 30.457-8.279 43.237-16.761v-32.543c-11.475 11.858-26.432 20.322-43.237 23.714z" fill="#6d00ca"/><path d="m198.081 409.457v31.887c12.844 8.15 27.51 13.672 43.237 15.811v-25.52c-16.655-2.967-31.59-10.879-43.237-22.178z" fill="#6d00ca"/><g fill="#6d00ca"><path d="m232.632 203.188c1.557 0 3.128-.483 4.473-1.484l18.895-14.067 18.895 14.067c3.321 2.472 8.021 1.786 10.494-1.538 2.474-3.322 1.785-8.021-1.537-10.495l-23.373-17.401c-2.657-1.978-6.298-1.979-8.957 0l-23.374 17.401c-3.322 2.474-4.011 7.172-1.537 10.495 1.472 1.978 3.732 3.022 6.021 3.022z"/><path d="m407.109 302.525-54.787-31.228c30.024-26.638 48.981-65.488 48.981-108.688 0-12.481-1.583-24.599-4.557-36.165 23.121-10.816 38.224-34.141 38.224-60.087 0-36.589-29.767-66.357-66.357-66.357-22.241 0-42.726 11.042-54.995 29.231-17.675-7.665-37.157-11.925-57.618-11.925s-39.943 4.26-57.619 11.925c-12.267-18.189-32.753-29.231-54.994-29.231-36.59 0-66.357 29.768-66.357 66.357 0 25.947 15.103 49.271 38.224 60.087-2.974 11.566-4.557 23.684-4.557 36.165 0 43.2 18.957 82.05 48.981 108.688l-54.787 31.228c-14.424 8.222-20.211 25.86-13.46 41.029 7.765 17.448 28.877 24.241 45.321 14.868l28.54-16.267v7.59c0 24.336 9.635 46.462 25.289 62.77v41.248h-6.968c-16.057 0-29.119 13.063-29.119 29.119s13.063 29.118 29.12 29.118h36.086c7.216 0 13.982-2.647 19.201-7.236 5.127 4.5 11.838 7.236 19.179 7.236h36.086c16.057 0 29.119-13.063 29.119-29.119v-72.369c14.55-16.095 23.423-37.414 23.423-60.767v-7.59l28.54 16.268c16.471 9.388 37.567 2.554 45.322-14.869 6.75-15.169.963-32.807-13.461-41.029zm-38.496-287.525c28.318 0 51.357 23.039 51.357 51.357 0 19.387-10.89 36.889-27.745 45.608-11.947-32.078-35.107-59.168-64.996-76.021 9.6-13.074 24.868-20.944 41.384-20.944zm-276.583 51.357c0-28.318 23.039-51.357 51.357-51.357 16.516 0 31.784 7.87 41.384 20.945-29.889 16.853-53.049 43.942-64.996 76.021-16.856-8.719-27.745-26.221-27.745-45.609zm33.667 96.252c0-71.85 58.454-130.303 130.304-130.303s130.302 58.454 130.302 130.303c0 71.797-58.402 130.303-130.303 130.303-71.578.001-130.303-58.182-130.303-130.303zm3.628 182.781c-8.766 4.996-20.024 1.425-24.189-7.936-3.604-8.096-.515-17.51 7.184-21.898l52.974-30.194v39.527zm90.375 151.61h-36.086c-7.785 0-14.119-6.333-14.119-14.119s6.334-14.119 14.119-14.119h14.468c4.143 0 7.5-3.358 7.5-7.5v-36.118c8.137 5.456 17.803 9.927 28.237 12.56v29.078c-3.058 4.612-4.857 10.217-4.857 16.099 0 2.884.453 6.04 1.481 9.161-2.65 3.115-6.544 4.958-10.743 4.958zm36.3-56.547c3.053 0 6.071-.154 9.047-.45v13.76h-6.968c-3.237 0-6.349.539-9.261 1.519v-15.113c2.371.186 4.765.284 7.182.284zm52.285 42.428c0 7.785-6.334 14.119-14.119 14.119h-36.086c-7.762 0-14.118-6.349-14.118-14.119 0-7.763 6.316-14.119 14.118-14.119h14.468c4.143 0 7.5-3.358 7.5-7.5v-24.038c9.6-2.632 19.42-7.11 28.237-13.354zm23.423-133.136c0 41.679-33.907 75.708-75.708 75.708-41.5 0-75.707-33.741-75.707-75.708 0-12.073 0-50.705 0-63.085 23.566 14.456 49.932 21.253 75.708 21.253 26.948 0 52.971-7.307 75.707-21.253zm75.158-12.29c-4.169 9.364-15.429 12.93-24.19 7.936l-35.968-20.501v-39.527l52.974 30.194c7.697 4.387 10.786 13.802 7.184 21.898z"/></g></g></svg>